<svg width="16" height="16" viewBox="0 0 16 16" fill="none" xmlns="http://www.w3.org/2000/svg">
<path d="M11.7047 10.6014C12.458 9.57035 12.7945 8.29299 12.6469 7.0246C12.4993 5.75621 11.8786 4.59022 10.9087 3.75963C9.93879 2.92904 8.69119 2.49502 7.4152 2.54431C6.1392 2.5936 4.9288 3.12256 4.02587 4.0255C3.12293 4.92844 2.59396 6.13884 2.54468 7.41483C2.49539 8.69082 2.9294 9.93843 3.75999 10.9083C4.59059 11.8782 5.75658 12.499 7.02497 12.6466C8.29335 12.7941 9.57072 12.4577 10.6018 11.7044L12.129 13.2316C12.2761 13.3737 12.4732 13.4523 12.6777 13.4505C12.8822 13.4487 13.0778 13.3667 13.2225 13.2221C13.3671 13.0775 13.4491 12.8818 13.4509 12.6773C13.4527 12.4728 13.374 12.2758 13.232 12.1287L11.7047 10.6014ZM10.0925 5.12817C10.7778 5.81353 11.1205 6.64085 11.1205 7.61013C11.1205 8.57941 10.7778 9.40673 10.0925 10.0921C9.4071 10.7775 8.57978 11.1201 7.6105 11.1201C6.64122 11.1201 5.8139 10.7775 5.12854 10.0921C4.44318 9.40673 4.1005 8.57941 4.1005 7.61013C4.1005 6.64085 4.44318 5.81353 5.12854 5.12817C5.8139 4.44281 6.64122 4.10013 7.6105 4.10013C8.57978 4.10013 9.4071 4.44281 10.0925 5.12817Z" fill="url(#paint0_linear_672_11455)"/>
<defs>
<linearGradient id="paint0_linear_672_11455" x1="13.5455" y1="7.08235" x2="1.8502" y2="8.20344" gradientUnits="userSpaceOnUse">
<stop stop-color="#FDF1DC"/>
<stop offset="1" stop-color="#FFCD87"/>
</linearGradient>
</defs>
</svg>
