<svg width="28" height="11" viewBox="0 0 28 11" fill="none" xmlns="http://www.w3.org/2000/svg">
<path d="M3.77473 10.7134C6.37266 10.7134 7.91584 8.68181 7.91584 5.2415C7.91584 3.94608 7.66808 2.85594 7.1938 2.01356C6.50716 0.703976 5.32499 -0.00390625 3.83136 -0.00390625C1.60861 -0.00390625 0.0371094 1.48973 0.0371094 3.58506C0.0371094 5.55297 1.45287 6.98289 3.39955 6.98289C4.59587 6.98289 5.56567 6.42367 6.04703 5.45387H6.06827C6.06827 5.45387 6.09658 5.45387 6.10366 5.45387C6.11782 5.45387 6.16737 5.45387 6.16737 5.45387C6.16737 7.78988 5.28252 9.18441 3.78889 9.18441C2.91111 9.18441 2.23155 8.70305 1.99794 7.93146H0.178686C0.483075 9.60914 1.90592 10.7134 3.77473 10.7134ZM3.83844 5.53174C2.66335 5.53174 1.82805 4.69643 1.82805 3.52843C1.82805 2.38874 2.70583 1.51804 3.84552 1.51804C4.98521 1.51804 5.86298 2.40289 5.86298 3.55674C5.86298 4.69643 5.00644 5.53174 3.83844 5.53174Z" fill="#131313"/>
<path d="M10.9034 10.6143C11.5759 10.6143 12.036 10.133 12.036 9.49588C12.036 8.8517 11.5759 8.37742 10.9034 8.37742C10.238 8.37742 9.77078 8.8517 9.77078 9.49588C9.77078 10.133 10.238 10.6143 10.9034 10.6143ZM10.9034 5.30521C11.5759 5.30521 12.036 4.83093 12.036 4.19384C12.036 3.54966 11.5759 3.07538 10.9034 3.07538C10.238 3.07538 9.77078 3.54966 9.77078 4.19384C9.77078 4.83093 10.238 5.30521 10.9034 5.30521Z" fill="#131313"/>
<path d="M18.6621 10.4657H20.4105V8.56147H21.7909V7.01829H20.4105V0.250931H17.8338C16.0287 2.9692 14.5917 5.2415 13.6715 6.93334V8.56147H18.6621V10.4657ZM15.3633 6.95458C16.5526 4.85925 17.6144 3.18157 18.5913 1.73748H18.6904V7.06076H15.3633V6.95458Z" fill="#131313"/>
<path d="M25.6845 10.4657H27.5109V0.250931H25.6916L23.0229 2.11974V3.87529L25.5642 2.09143H25.6845V10.4657Z" fill="#131313"/>
</svg>
