<svg width="14" height="14" viewBox="0 0 14 14" fill="none" xmlns="http://www.w3.org/2000/svg">
<g clip-path="url(#clip0_672_11299)">
<path d="M13.713 12.3414L8.372 7.00041L13.713 1.65941C14.091 1.28141 14.091 0.665406 13.713 0.287406C13.335 -0.0905938 12.719 -0.0905938 12.341 0.287406L7 5.62841L1.659 0.287406C1.281 -0.0905938 0.665 -0.0905938 0.287 0.287406C-0.091 0.665406 -0.091 1.28141 0.287 1.65941L5.628 7.00041L0.287 12.3414C0.105 12.5234 0 12.7684 0 13.0274C0 13.2864 0.098 13.5314 0.287 13.7134C0.469 13.8954 0.714 14.0004 0.973 14.0004C1.232 14.0004 1.477 13.9024 1.659 13.7134L7 8.37241L12.341 13.7134C12.523 13.8954 12.768 14.0004 13.027 14.0004C13.286 14.0004 13.531 13.9024 13.713 13.7134C13.895 13.5314 14 13.2864 14 13.0274C14 12.7684 13.902 12.5234 13.713 12.3414Z" fill="white"/>
</g>
<defs>
<clipPath id="clip0_672_11299">
<rect width="14" height="14" fill="white"/>
</clipPath>
</defs>
</svg>
