<svg width="25" height="25" viewBox="0 0 25 25" fill="none" xmlns="http://www.w3.org/2000/svg">
<path opacity="0.8" d="M16.6779 14.7527H8.67786C8.41264 14.7527 8.15829 14.858 7.97075 15.0456C7.78321 15.2331 7.67786 15.4875 7.67786 15.7527C7.67786 16.0179 7.78321 16.2723 7.97075 16.4598C8.15829 16.6473 8.41264 16.7527 8.67786 16.7527H16.6779C16.9431 16.7527 17.1974 16.6473 17.385 16.4598C17.5725 16.2723 17.6779 16.0179 17.6779 15.7527C17.6779 15.4875 17.5725 15.2331 17.385 15.0456C17.1974 14.858 16.9431 14.7527 16.6779 14.7527ZM16.6779 10.7527H10.6779C10.4126 10.7527 10.1583 10.858 9.97075 11.0456C9.78321 11.2331 9.67786 11.4875 9.67786 11.7527C9.67786 12.0179 9.78321 12.2723 9.97075 12.4598C10.1583 12.6473 10.4126 12.7527 10.6779 12.7527H16.6779C16.9431 12.7527 17.1974 12.6473 17.385 12.4598C17.5725 12.2723 17.6779 12.0179 17.6779 11.7527C17.6779 11.4875 17.5725 11.2331 17.385 11.0456C17.1974 10.858 16.9431 10.7527 16.6779 10.7527ZM20.6779 4.75269H17.6779V3.75269C17.6779 3.48747 17.5725 3.23312 17.385 3.04558C17.1974 2.85804 16.9431 2.75269 16.6779 2.75269C16.4126 2.75269 16.1583 2.85804 15.9707 3.04558C15.7832 3.23312 15.6779 3.48747 15.6779 3.75269V4.75269H13.6779V3.75269C13.6779 3.48747 13.5725 3.23312 13.385 3.04558C13.1974 2.85804 12.9431 2.75269 12.6779 2.75269C12.4126 2.75269 12.1583 2.85804 11.9707 3.04558C11.7832 3.23312 11.6779 3.48747 11.6779 3.75269V4.75269H9.67786V3.75269C9.67786 3.48747 9.5725 3.23312 9.38496 3.04558C9.19743 2.85804 8.94307 2.75269 8.67786 2.75269C8.41264 2.75269 8.15829 2.85804 7.97075 3.04558C7.78321 3.23312 7.67786 3.48747 7.67786 3.75269V4.75269H4.67786C4.41264 4.75269 4.15829 4.85804 3.97075 5.04558C3.78321 5.23312 3.67786 5.48747 3.67786 5.75269V19.7527C3.67786 20.5483 3.99393 21.3114 4.55654 21.874C5.11915 22.4366 5.88221 22.7527 6.67786 22.7527H18.6779C19.4735 22.7527 20.2366 22.4366 20.7992 21.874C21.3618 21.3114 21.6779 20.5483 21.6779 19.7527V5.75269C21.6779 5.48747 21.5725 5.23312 21.385 5.04558C21.1974 4.85804 20.9431 4.75269 20.6779 4.75269ZM19.6779 19.7527C19.6779 20.0179 19.5725 20.2723 19.385 20.4598C19.1974 20.6473 18.9431 20.7527 18.6779 20.7527H6.67786C6.41264 20.7527 6.15829 20.6473 5.97075 20.4598C5.78321 20.2723 5.67786 20.0179 5.67786 19.7527V6.75269H7.67786V7.75269C7.67786 8.0179 7.78321 8.27226 7.97075 8.45979C8.15829 8.64733 8.41264 8.75269 8.67786 8.75269C8.94307 8.75269 9.19743 8.64733 9.38496 8.45979C9.5725 8.27226 9.67786 8.0179 9.67786 7.75269V6.75269H11.6779V7.75269C11.6779 8.0179 11.7832 8.27226 11.9707 8.45979C12.1583 8.64733 12.4126 8.75269 12.6779 8.75269C12.9431 8.75269 13.1974 8.64733 13.385 8.45979C13.5725 8.27226 13.6779 8.0179 13.6779 7.75269V6.75269H15.6779V7.75269C15.6779 8.0179 15.7832 8.27226 15.9707 8.45979C16.1583 8.64733 16.4126 8.75269 16.6779 8.75269C16.9431 8.75269 17.1974 8.64733 17.385 8.45979C17.5725 8.27226 17.6779 8.0179 17.6779 7.75269V6.75269H19.6779V19.7527Z" fill="#94A0B8"/>
</svg>
