<svg width="36" height="31" viewBox="0 0 36 31" fill="none" xmlns="http://www.w3.org/2000/svg">
<path d="M33.4298 13.558C35.6338 14.8304 36.3889 17.6486 35.1165 19.8526L30.5085 27.8339C29.236 30.0379 26.4178 30.793 24.2138 29.5205L19.1196 26.5794C17.7604 25.7946 16.0951 25.7557 14.7007 26.4761L12.4539 27.6368C11.708 28.0221 10.8135 27.5056 10.7743 26.667L10.6561 24.1409C10.5827 22.5731 9.71637 21.1504 8.3571 20.3657L3.26293 17.4245C1.05895 16.1521 0.303818 13.3339 1.57628 11.1299L6.18428 3.1486C7.45675 0.944632 10.275 0.189495 12.4789 1.46196L33.4298 13.558Z" fill="#0EA472"/>
</svg>
