<svg width="25" height="25" viewBox="0 0 25 25" fill="none" xmlns="http://www.w3.org/2000/svg">
<path opacity="0.8" d="M16.4971 13.4643C17.4775 12.6929 18.1931 11.6352 18.5443 10.4382C18.8956 9.24124 18.865 7.96454 18.4569 6.78574C18.0488 5.60695 17.2834 4.58467 16.2672 3.86113C15.251 3.13759 14.0346 2.74878 12.7871 2.74878C11.5397 2.74878 10.3232 3.13759 9.30704 3.86113C8.29085 4.58467 7.52545 5.60695 7.11732 6.78574C6.70919 7.96454 6.67862 9.24124 7.02987 10.4382C7.38112 11.6352 8.09671 12.6929 9.07711 13.4643C7.39718 14.1373 5.93139 15.2536 4.836 16.6942C3.7406 18.1348 3.05667 19.8456 2.85711 21.6443C2.84266 21.7756 2.85422 21.9085 2.89113 22.0353C2.92804 22.1622 2.98957 22.2805 3.07222 22.3836C3.23912 22.5918 3.48189 22.7251 3.74711 22.7543C4.01232 22.7834 4.27827 22.7061 4.48643 22.5392C4.6946 22.3723 4.82793 22.1295 4.85711 21.8643C5.07669 19.9095 6.00879 18.1041 7.47533 16.7931C8.94186 15.482 10.84 14.7573 12.8071 14.7573C14.7742 14.7573 16.6724 15.482 18.1389 16.7931C19.6054 18.1041 20.5375 19.9095 20.7571 21.8643C20.7843 22.11 20.9015 22.3369 21.0862 22.5013C21.2709 22.6656 21.5099 22.7558 21.7571 22.7543H21.8671C22.1292 22.7241 22.3688 22.5916 22.5337 22.3855C22.6985 22.1795 22.7752 21.9166 22.7471 21.6543C22.5466 19.8505 21.859 18.1353 20.758 16.6925C19.6569 15.2497 18.184 14.1338 16.4971 13.4643ZM12.7871 12.7543C11.996 12.7543 11.2226 12.5197 10.5648 12.0802C9.90703 11.6406 9.39434 11.0159 9.09159 10.285C8.78884 9.5541 8.70962 8.74984 8.86396 7.97391C9.01831 7.19799 9.39927 6.48526 9.95868 5.92585C10.5181 5.36644 11.2308 4.98548 12.0067 4.83113C12.7827 4.67679 13.5869 4.75601 14.3178 5.05876C15.0487 5.36151 15.6735 5.8742 16.113 6.53199C16.5525 7.18979 16.7871 7.96315 16.7871 8.75428C16.7871 9.81514 16.3657 10.8326 15.6155 11.5827C14.8654 12.3328 13.848 12.7543 12.7871 12.7543Z" fill="#94A0B8"/>
</svg>
