<svg width="16" height="14" viewBox="0 0 16 14" fill="none" xmlns="http://www.w3.org/2000/svg">
<path d="M11.9814 6.49191L11.7345 13.0316H10.4015L10.6504 6.49191H11.9824H11.9814ZM7.1193 3.95751L9.60227 12.9503H7.5585L6.96913 10.8736H3.85564L2.84455 12.9503H0.800781L5.11255 3.95751H7.11827H7.1193ZM5.88912 6.1278L4.40078 9.26905H6.73975L5.88912 6.1278ZM12.8474 2.10608C12.877 2.1159 12.9039 2.13256 12.9259 2.15472C12.9479 2.17689 12.9643 2.20392 12.9739 2.23363L13.482 3.81454L15.0712 4.39054C15.1514 4.42037 15.2049 4.49957 15.2018 4.58597C15.2009 4.6283 15.1866 4.66926 15.1609 4.70292C15.1352 4.73657 15.0995 4.76117 15.0588 4.77317L13.5036 5.21957L13.0212 6.77785C13.0091 6.81762 12.9846 6.85249 12.9513 6.87744C12.918 6.90239 12.8777 6.91614 12.8361 6.91671C12.7941 6.91687 12.7532 6.90357 12.7193 6.87876C12.6854 6.85396 12.6604 6.81895 12.6479 6.77888L12.1398 5.19797L10.5979 4.69808C10.5584 4.68459 10.5241 4.65911 10.4998 4.62518C10.4754 4.59126 10.4623 4.55058 10.4622 4.50883C10.4611 4.42243 10.5146 4.34425 10.5959 4.31751L12.1182 3.79294L12.6016 2.23568C12.609 2.21086 12.6212 2.18775 12.6377 2.16771C12.6541 2.14767 12.6743 2.13109 12.6972 2.11893C12.72 2.10678 12.7451 2.09929 12.7709 2.09691C12.7967 2.09453 12.8227 2.09729 12.8474 2.10505V2.10608ZM9.35027 0.694883C9.39244 0.709283 9.42535 0.743226 9.43873 0.786426L9.72775 1.73271L10.6802 2.06288C10.7368 2.08345 10.7748 2.13694 10.7728 2.19865C10.7724 2.22809 10.7628 2.25666 10.7452 2.2803C10.7277 2.30394 10.7031 2.32144 10.6751 2.33031L9.72673 2.61831L9.41815 3.56974C9.40915 3.59776 9.39141 3.62217 9.36754 3.63938C9.34366 3.65659 9.3149 3.66571 9.28547 3.6654C9.25618 3.66485 9.22782 3.65498 9.20452 3.63723C9.18121 3.61947 9.16417 3.59475 9.15587 3.56665L8.86581 2.62037L7.94318 2.33545C7.91528 2.32664 7.89084 2.30929 7.87331 2.28586C7.85578 2.26242 7.84605 2.23408 7.84547 2.20483C7.8446 2.17532 7.85309 2.1463 7.86972 2.12191C7.88634 2.09753 7.91026 2.07902 7.93804 2.06905L8.86787 1.73477L9.17644 0.78334C9.18191 0.765914 9.19081 0.74976 9.20262 0.73583C9.21443 0.721899 9.22891 0.710475 9.24521 0.702231C9.26151 0.693987 9.27929 0.689089 9.29751 0.687827C9.31573 0.686565 9.33402 0.688964 9.3513 0.694883H9.35027Z" fill="url(#paint0_linear_672_11554)" fill-opacity="0.9"/>
<defs>
<linearGradient id="paint0_linear_672_11554" x1="3.58077" y1="6.88401" x2="17.7369" y2="-5.55776" gradientUnits="userSpaceOnUse">
<stop stop-color="white"/>
<stop offset="1" stop-color="white" stop-opacity="0"/>
</linearGradient>
</defs>
</svg>
