<svg width="12" height="12" viewBox="0 0 12 12" fill="none" xmlns="http://www.w3.org/2000/svg">
<path d="M3.67854 10.713C3.43977 10.713 3.20712 10.6395 3.0112 10.4926C2.6561 10.2354 2.48467 9.80687 2.55814 9.3783L2.83977 7.72524C2.8765 7.51095 2.80303 7.29667 2.64997 7.14973L1.44385 5.97422C1.13161 5.6681 1.0214 5.22116 1.1561 4.80483C1.29079 4.3885 1.64589 4.08851 2.08059 4.02728L3.73977 3.78851C3.95406 3.75789 4.13773 3.6232 4.22956 3.4334L4.97038 1.92728C5.1663 1.52932 5.55814 1.28442 5.99895 1.28442C6.43977 1.28442 6.83161 1.52932 7.0214 1.92116L7.76834 3.42728C7.8663 3.61708 8.04997 3.75177 8.25814 3.78238L9.91732 4.02116C10.352 4.08238 10.7071 4.38238 10.8418 4.79871C10.9765 5.21504 10.8663 5.66197 10.5541 5.9681L9.35406 7.13749C9.20099 7.28442 9.12752 7.50483 9.16426 7.71299L9.44589 9.36606C9.51936 9.80075 9.34793 10.2232 8.99283 10.4803C8.63773 10.7375 8.17855 10.7681 7.79283 10.5661L6.30508 9.80075C6.11528 9.70279 5.88875 9.70279 5.69895 9.80075L4.2112 10.5844C4.03977 10.6701 3.8561 10.713 3.67854 10.713Z" fill="url(#paint0_linear_672_11473)"/>
<defs>
<linearGradient id="paint0_linear_672_11473" x1="10.9833" y1="5.20952" x2="0.486923" y2="6.25518" gradientUnits="userSpaceOnUse">
<stop stop-color="#FDF1DC"/>
<stop offset="1" stop-color="#FFCD87"/>
</linearGradient>
</defs>
</svg>
