<svg width="30" height="30" viewBox="0 0 30 30" fill="none" xmlns="http://www.w3.org/2000/svg">
<g clip-path="url(#clip0_672_11503)">
<mask id="mask0_672_11503" style="mask-type:alpha" maskUnits="userSpaceOnUse" x="-4" y="-14" width="36" height="36">
<circle cx="14" cy="4" r="18" fill="#E7F0FF"/>
</mask>
<g mask="url(#mask0_672_11503)">
<path d="M15.0004 17.1255C15.4794 16.5867 15.8387 15.8682 15.8387 15.0898C15.8387 14.3114 15.5393 13.5929 15.0004 13.054C14.4615 12.5152 13.8029 12.2158 13.0245 12.2158C12.2461 12.2158 11.5276 12.5152 11.0486 13.054C10.5098 13.5929 10.2104 14.3114 10.2104 15.0898C10.2104 15.8682 10.5098 16.5867 11.0486 17.1255C12.0665 18.2632 13.8628 18.2632 15.0004 17.1255ZM16.1979 19.7601C16.0183 19.5206 15.7189 19.3409 15.4794 19.2212C15.2399 19.1014 14.9405 19.0416 14.6412 19.0416H11.348C10.7493 19.0416 10.1505 19.3409 9.79126 19.7601C9.55175 19.9996 9.432 20.2989 9.31225 20.5983C9.1925 20.8977 9.13263 21.1971 9.13263 21.5563V21.9156H16.8565V21.5563C16.8565 21.1971 16.7967 20.8977 16.6769 20.5983C16.5572 20.2391 16.3775 19.9996 16.1979 19.7601Z" fill="url(#paint0_linear_672_11503)"/>
<path d="M15.0004 17.1255C15.4794 16.5867 15.8387 15.8682 15.8387 15.0898C15.8387 14.3114 15.5393 13.5929 15.0004 13.054C14.4615 12.5152 13.8029 12.2158 13.0245 12.2158C12.2461 12.2158 11.5276 12.5152 11.0486 13.054C10.5098 13.5929 10.2104 14.3114 10.2104 15.0898C10.2104 15.8682 10.5098 16.5867 11.0486 17.1255C12.0665 18.2632 13.8628 18.2632 15.0004 17.1255ZM16.1979 19.7601C16.0183 19.5206 15.7189 19.3409 15.4794 19.2212C15.2399 19.1014 14.9405 19.0416 14.6412 19.0416H11.348C10.7493 19.0416 10.1505 19.3409 9.79126 19.7601C9.55175 19.9996 9.432 20.2989 9.31225 20.5983C9.1925 20.8977 9.13263 21.1971 9.13263 21.5563V21.9156H16.8565V21.5563C16.8565 21.1971 16.7967 20.8977 16.6769 20.5983C16.5572 20.2391 16.3775 19.9996 16.1979 19.7601Z" fill="url(#paint1_linear_672_11503)"/>
<path d="M25.778 24.131C25.2989 24.131 24.8798 23.7118 24.8798 23.2328V4.37212C24.8798 3.29436 24.0416 2.45611 22.9638 2.45611H9.49188C9.01288 2.45611 8.59375 2.03698 8.59375 1.55798C8.59375 1.07898 9.01288 0.599976 9.49188 0.599976H22.9638C25.0594 0.599976 26.736 2.27648 26.736 4.37212V23.2328C26.6761 23.7118 26.3168 24.131 25.778 24.131Z" fill="url(#paint2_linear_672_11503)"/>
<path d="M20.1485 4.73145H5.77843C4.4013 4.73145 3.26367 5.86908 3.26367 7.24621V26.8853C3.26367 28.2624 4.4013 29.4001 5.77843 29.4001H20.1485C21.5256 29.4001 22.6633 28.2624 22.6633 26.8853V7.24621C22.6633 5.86908 21.5256 4.73145 20.1485 4.73145ZM12.9635 24.4903C8.83207 24.4903 5.53893 21.1373 5.53893 17.0657C5.53893 12.9344 8.89195 9.64122 12.9635 9.64122C17.0949 9.58134 20.388 12.9344 20.388 17.0657C20.388 21.1373 17.0949 24.4903 12.9635 24.4903Z" fill="url(#paint3_linear_672_11503)"/>
</g>
</g>
<defs>
<linearGradient id="paint0_linear_672_11503" x1="-11.8162" y1="2.73916" x2="-11.8162" y2="26.2701" gradientUnits="userSpaceOnUse">
<stop stop-color="#77ABF5"/>
<stop offset="1" stop-color="#3D7DF0"/>
</linearGradient>
<linearGradient id="paint1_linear_672_11503" x1="23.0884" y1="9.47362" x2="7.60711" y2="10.4741" gradientUnits="userSpaceOnUse">
<stop stop-color="#FDF1DC"/>
<stop offset="1" stop-color="#FFCD87"/>
</linearGradient>
<linearGradient id="paint2_linear_672_11503" x1="-11.8162" y1="2.73916" x2="-11.8162" y2="26.2701" gradientUnits="userSpaceOnUse">
<stop stop-color="#77ABF5"/>
<stop offset="1" stop-color="#3D7DF0"/>
</linearGradient>
<linearGradient id="paint3_linear_672_11503" x1="-18.5609" y1="6.97405" x2="-18.5609" y2="31.6427" gradientUnits="userSpaceOnUse">
<stop stop-color="#77ABF5"/>
<stop offset="1" stop-color="#3D7DF0"/>
</linearGradient>
<clipPath id="clip0_672_11503">
<rect width="28.8" height="28.8" fill="white" transform="translate(0.599609 0.601562)"/>
</clipPath>
</defs>
</svg>
