<svg width="30" height="30" viewBox="0 0 30 30" fill="none" xmlns="http://www.w3.org/2000/svg">
<g clip-path="url(#clip0_672_11489)">
<mask id="mask0_672_11489" style="mask-type:alpha" maskUnits="userSpaceOnUse" x="-4" y="-14" width="36" height="36">
<circle cx="14" cy="4" r="18" fill="#E7F0FF"/>
</mask>
<g mask="url(#mask0_672_11489)">
<g filter="url(#filter0_i_672_11489)">
<path d="M21.5424 0.355469V2.82519C21.5424 4.02771 20.5669 5.00319 19.3644 5.00319C18.1619 5.00319 17.1864 4.02771 17.1864 2.82519V0.355469H10.96V2.82651C10.96 4.02903 9.9845 5.00451 8.78198 5.00451C7.57946 5.00451 6.60398 4.02903 6.60398 2.82651V0.356789C4.45766 0.404309 2.73242 2.15727 2.73242 4.31415V18.5817C2.73242 20.7689 4.50518 22.5417 6.69242 22.5417H21.5055C23.6927 22.5417 25.4655 20.7689 25.4655 18.5817V4.31547C25.4641 2.14011 23.7112 0.376589 21.5424 0.355469Z" fill="url(#paint0_linear_672_11489)"/>
</g>
<path d="M16.6191 17.4129C16.6191 17.8547 16.9505 18.0757 17.2819 18.0757H18.8284C19.2703 18.0757 19.4912 17.7443 19.4912 17.4129V6.5871C19.4912 6.14524 19.1598 5.92432 18.8284 5.92432H17.2819C16.8401 5.92432 16.6191 6.25571 16.6191 6.5871V17.4129Z" fill="#FFCF8C"/>
<path d="M12.5332 17.6339C12.5332 17.8548 12.8646 18.0757 13.196 18.0757H14.7425C15.1843 18.0757 15.4053 17.8548 15.4053 17.6339V11.1163C15.4053 10.8954 15.0739 10.6744 14.7425 10.6744H13.196C12.8646 10.6744 12.5332 10.8954 12.5332 11.1163V17.6339Z" fill="#FED79F"/>
<path d="M8.33398 17.6339C8.33398 17.7444 8.66538 17.9653 8.99677 17.9653H10.6538C11.0956 17.9653 11.3166 17.8548 11.3166 17.6339V13.2152C11.3166 12.9943 10.9852 12.8838 10.6538 12.8838H8.99683C8.55498 12.8838 8.33405 12.9943 8.33405 13.2152V17.6339H8.33398Z" fill="#FDF0DA"/>
<path d="M10.0373 2.8228V-0.519438C10.0373 -1.21112 9.47498 -1.77344 8.7833 -1.77344C8.09162 -1.77344 7.5293 -1.21112 7.5293 -0.519438V2.8228C7.5293 3.51448 8.09162 4.0768 8.7833 4.0768C9.47498 4.0768 10.0373 3.51448 10.0373 2.8228ZM19.3657 -1.77344C18.6741 -1.77344 18.1117 -1.21112 18.1117 -0.519438V2.8228C18.1117 3.51448 18.6741 4.0768 19.3657 4.0768C20.0574 4.0768 20.6197 3.51448 20.6197 2.8228V-0.519438C20.6197 -1.21112 20.0574 -1.77344 19.3657 -1.77344Z" fill="#FFE37B"/>
<path d="M10.0373 2.8228V-0.519438C10.0373 -1.21112 9.47498 -1.77344 8.7833 -1.77344C8.09162 -1.77344 7.5293 -1.21112 7.5293 -0.519438V2.8228C7.5293 3.51448 8.09162 4.0768 8.7833 4.0768C9.47498 4.0768 10.0373 3.51448 10.0373 2.8228ZM19.3657 -1.77344C18.6741 -1.77344 18.1117 -1.21112 18.1117 -0.519438V2.8228C18.1117 3.51448 18.6741 4.0768 19.3657 4.0768C20.0574 4.0768 20.6197 3.51448 20.6197 2.8228V-0.519438C20.6197 -1.21112 20.0574 -1.77344 19.3657 -1.77344Z" fill="url(#paint1_linear_672_11489)"/>
</g>
</g>
<defs>
<filter id="filter0_i_672_11489" x="-1.26758" y="0.355469" width="26.733" height="22.1862" filterUnits="userSpaceOnUse" color-interpolation-filters="sRGB">
<feFlood flood-opacity="0" result="BackgroundImageFix"/>
<feBlend mode="normal" in="SourceGraphic" in2="BackgroundImageFix" result="shape"/>
<feColorMatrix in="SourceAlpha" type="matrix" values="0 0 0 0 0 0 0 0 0 0 0 0 0 0 0 0 0 0 127 0" result="hardAlpha"/>
<feOffset dx="-4"/>
<feGaussianBlur stdDeviation="2"/>
<feComposite in2="hardAlpha" operator="arithmetic" k2="-1" k3="1"/>
<feColorMatrix type="matrix" values="0 0 0 0 0.321569 0 0 0 0 0.556863 0 0 0 0 0.94902 0 0 0 1 0"/>
<feBlend mode="normal" in2="shape" result="effect1_innerShadow_672_11489"/>
</filter>
<linearGradient id="paint0_linear_672_11489" x1="-22.8423" y1="2.3724" x2="-22.8423" y2="24.5586" gradientUnits="userSpaceOnUse">
<stop stop-color="#77ABF5"/>
<stop offset="1" stop-color="#3D7DF0"/>
</linearGradient>
<linearGradient id="paint1_linear_672_11489" x1="20.7333" y1="5.74885" x2="6.63959" y2="6.72758" gradientUnits="userSpaceOnUse">
<stop stop-color="#FDF1DC"/>
<stop offset="1" stop-color="#FFCD87"/>
</linearGradient>
<clipPath id="clip0_672_11489">
<rect width="28.8" height="28.8" fill="white" transform="translate(0.599609 0.601562)"/>
</clipPath>
</defs>
</svg>
