<svg width="20" height="13" viewBox="0 0 20 13" fill="none" xmlns="http://www.w3.org/2000/svg">
<path d="M2.8866 8.07251C3.49694 8.07251 3.99207 8.56697 3.99207 9.177V11.386C3.99201 11.996 3.49691 12.4905 2.8866 12.4905H1.7821C1.1718 12.4905 0.676693 11.996 0.676636 11.386V9.177C0.676636 8.56697 1.17176 8.07251 1.7821 8.07251H2.8866ZM8.0448 5.86353C8.65498 5.86372 9.14929 6.3581 9.14929 6.96802V11.386C9.14927 11.9959 8.65497 12.4903 8.0448 12.4905H6.93933C6.329 12.4905 5.83388 11.996 5.83386 11.386V6.96802C5.83386 6.35798 6.32899 5.86353 6.93933 5.86353H8.0448ZM13.202 3.2854C13.8122 3.2854 14.3073 3.78004 14.3075 4.38989V11.386C14.3074 11.996 13.8123 12.4905 13.202 12.4905H12.0966C11.4864 12.4903 10.9921 11.9958 10.9921 11.386V4.38989C10.9923 3.78017 11.4865 3.28561 12.0966 3.2854H13.202ZM18.3583 0.708252C18.9686 0.708252 19.4637 1.20277 19.4637 1.81274V11.386C19.4636 11.9959 18.9686 12.4905 18.3583 12.4905H17.2538C16.6435 12.4905 16.1484 11.9959 16.1483 11.386V1.81274C16.1484 1.20277 16.6435 0.708252 17.2538 0.708252H18.3583Z" fill="#131313"/>
</svg>
