<svg width="11" height="7" viewBox="0 0 11 7" fill="none" xmlns="http://www.w3.org/2000/svg">
<path d="M9.76379 0.842529C9.87614 0.733091 10.0896 0.719166 10.2286 0.80249L10.2823 0.843506L10.2833 0.844482C10.3471 0.906025 10.3809 0.985717 10.381 1.07202V1.07397C10.3812 1.13715 10.3627 1.1978 10.3253 1.25171L10.2823 1.30347L5.04895 6.39233C4.92088 6.51681 4.66057 6.51877 4.52942 6.39331H4.5304L1.48938 3.43823L1.44641 3.38745C1.40982 3.3344 1.39075 3.27305 1.39075 3.20776C1.39077 3.14334 1.40905 3.08242 1.44543 3.03003L1.4884 2.9812L1.48938 2.98022C1.55692 2.9148 1.64759 2.87681 1.74915 2.87671C1.82493 2.87671 1.89591 2.89778 1.9552 2.93628L2.00989 2.98022L4.44153 5.34155L4.79016 5.68042L5.13782 5.34155L9.76379 0.842529Z" fill="#94A0B8" stroke="#94A0B8"/>
</svg>
