<svg width="19" height="21" viewBox="0 0 19 21" fill="none" xmlns="http://www.w3.org/2000/svg">
<path opacity="0.8" d="M17.9044 2.75269H14.9044V1.75269C14.9044 1.48747 14.7991 1.23312 14.6115 1.04558C14.424 0.858042 14.1696 0.752686 13.9044 0.752686C13.6392 0.752686 13.3848 0.858042 13.1973 1.04558C13.0098 1.23312 12.9044 1.48747 12.9044 1.75269V2.75269H10.9044V1.75269C10.9044 1.48747 10.7991 1.23312 10.6115 1.04558C10.424 0.858042 10.1696 0.752686 9.90442 0.752686C9.6392 0.752686 9.38485 0.858042 9.19731 1.04558C9.00978 1.23312 8.90442 1.48747 8.90442 1.75269V2.75269H6.90442V1.75269C6.90442 1.48747 6.79906 1.23312 6.61153 1.04558C6.42399 0.858042 6.16964 0.752686 5.90442 0.752686C5.6392 0.752686 5.38485 0.858042 5.19731 1.04558C5.00978 1.23312 4.90442 1.48747 4.90442 1.75269V2.75269H1.90442C1.6392 2.75269 1.38485 2.85804 1.19731 3.04558C1.00978 3.23312 0.904419 3.48747 0.904419 3.75269V17.7527C0.904419 18.5483 1.22049 19.3114 1.7831 19.874C2.34571 20.4366 3.10877 20.7527 3.90442 20.7527H15.9044C16.7001 20.7527 17.4631 20.4366 18.0257 19.874C18.5883 19.3114 18.9044 18.5483 18.9044 17.7527V3.75269C18.9044 3.48747 18.7991 3.23312 18.6115 3.04558C18.424 2.85804 18.1696 2.75269 17.9044 2.75269ZM16.9044 17.7527C16.9044 18.0179 16.7991 18.2723 16.6115 18.4598C16.424 18.6473 16.1696 18.7527 15.9044 18.7527H3.90442C3.6392 18.7527 3.38485 18.6473 3.19731 18.4598C3.00978 18.2723 2.90442 18.0179 2.90442 17.7527V4.75269H4.90442V5.75269C4.90442 6.0179 5.00978 6.27226 5.19731 6.45979C5.38485 6.64733 5.6392 6.75269 5.90442 6.75269C6.16964 6.75269 6.42399 6.64733 6.61153 6.45979C6.79906 6.27226 6.90442 6.0179 6.90442 5.75269V4.75269H8.90442V5.75269C8.90442 6.0179 9.00978 6.27226 9.19731 6.45979C9.38485 6.64733 9.6392 6.75269 9.90442 6.75269C10.1696 6.75269 10.424 6.64733 10.6115 6.45979C10.7991 6.27226 10.9044 6.0179 10.9044 5.75269V4.75269H12.9044V5.75269C12.9044 6.0179 13.0098 6.27226 13.1973 6.45979C13.3848 6.64733 13.6392 6.75269 13.9044 6.75269C14.1696 6.75269 14.424 6.64733 14.6115 6.45979C14.7991 6.27226 14.9044 6.0179 14.9044 5.75269V4.75269H16.9044V17.7527Z" fill="#94A0B8"/>
</svg>
