<svg width="17" height="13" viewBox="0 0 17 13" fill="none" xmlns="http://www.w3.org/2000/svg">
<path d="M6.01661 9.61538C7.42627 8.42368 9.49171 8.42368 10.9014 9.61538C10.9721 9.67937 11.0126 9.77005 11.0147 9.86538C11.0166 9.96091 10.9794 10.0533 10.9111 10.1203L8.70411 12.3468C8.63941 12.4123 8.55103 12.4494 8.45899 12.4494C8.36695 12.4494 8.27858 12.4123 8.21387 12.3468L6.00587 10.1203C5.93788 10.0533 5.90033 9.96078 5.90235 9.86538C5.90448 9.77001 5.94578 9.67934 6.01661 9.61538ZM3.0713 6.64566C6.1084 3.82196 10.8125 3.82196 13.8496 6.64566C13.9179 6.71178 13.957 6.80258 13.958 6.89761C13.959 6.99286 13.9216 7.08491 13.8545 7.15249L12.5781 8.44155C12.4467 8.57283 12.2344 8.57531 12.0996 8.44741C11.1023 7.54475 9.80447 7.04499 8.45899 7.04507C7.11444 7.04566 5.81795 7.54537 4.8213 8.44741C4.68651 8.57535 4.47428 8.57279 4.34278 8.44155L3.06641 7.15249C2.9992 7.08501 2.962 6.99283 2.9629 6.89761C2.96389 6.80255 3.00294 6.71176 3.0713 6.64566ZM0.125984 3.68374C4.78419 -0.778207 12.1328 -0.778207 16.791 3.68374C16.8584 3.75002 16.8969 3.84021 16.8975 3.93472C16.898 4.02925 16.8606 4.12058 16.794 4.18765L15.5166 5.47573C15.3851 5.6079 15.1718 5.60962 15.0381 5.47964C13.2633 3.7932 10.9078 2.85281 8.45899 2.85269C6.00991 2.85268 3.65391 3.79308 1.87891 5.47964C1.74533 5.60975 1.53184 5.60808 1.4004 5.47573L0.123054 4.18765C0.0564646 4.12054 0.0189277 4.02923 0.0195386 3.93472C0.0201606 3.84023 0.0585579 3.74997 0.125984 3.68374Z" fill="#131313"/>
</svg>
